<defs>
<font horiz-adv-x="1078" ><font-face
    font-family="amble-bold-italic"
    units-per-em="2048"
    panose-1="0 0 0 0 0 0 0 0 0 0"
    ascent="1860"
    descent="-560"
    alphabetic="0" />
<missing-glyph horiz-adv-x="463" />
<glyph unicode=" " glyph-name="space" horiz-adv-x="472" />
<glyph unicode="!" glyph-name="exclam" horiz-adv-x="596" d="M267 1376H553L393 438H155L267 1376ZM109 216H373L342 0H78L109 216Z" />
<glyph unicode="&quot;" glyph-name="quotedbl" horiz-adv-x="734" d="M165 1360H424L301 886L114 896L165 1360ZM500 1360H756L635 886L448 896L500 1360Z" />
<glyph unicode="#" glyph-name="numbersign" horiz-adv-x="1396" d="M706 344H515L423 0H173L265 344H58L88 554H321L383 788H173L204 998H440L536 1360H786L689 998H880L977 1360H1228L1132 998H1332L1302 788H1075L1013 554H1220L1190 344H956L864 0H614L706
344ZM570 554H761L824 788H633L570 554Z" />
<glyph unicode="$" glyph-name="dollar" horiz-adv-x="1151" d="M404 -12Q315 -2 231 21T85 78L179 294Q271 262 356 241T535 220Q624 220 679 259T743 371Q747 408 734 437T692 489T623 532T529 570Q449 598 385 633T276 713T207 812T182 936Q182 947 182 958T184
980Q192 1056 221 1119T299 1232T412 1314T556 1365L581 1596H843L818 1371Q862 1364 903 1354T980 1331T1047 1305T1101 1278L1022 1061Q976 1078 935 1092T854 1117T774 1134T690 1140Q596 1140 544 1098T484 990Q476 923 519 878T673 795Q770 762 840 725T955
644T1021 547T1043 429Q1043 404 1040 377Q1032 301 1002 238T924 126T810 44T666 -6L638 -260H377L404 -12Z" />
<glyph unicode="%" glyph-name="percent" horiz-adv-x="1542" d="M155 1076Q166 1149 198 1206T277 1301T385 1360T512 1380Q572 1380 622 1363T709 1314T765 1235T786 1129Q786 1116 785 1103T782 1076Q771 1002 740 945T661 850T553 792T424 772Q365 772 315
789T229 838T172 916T151 1023Q151 1036 152 1049T155 1076ZM351 1076Q348 1056 348 1039Q348 982 374 952T446 922Q497 922 536 962T587 1076Q590 1097 590 1114Q590 1171 563 1199T490 1228Q440 1228 401 1189T351 1076ZM785 286Q795 359 826 416T905 511T1013
570T1141 590Q1201 590 1251 573T1338 524T1394 445T1415 338Q1415 325 1414 313T1411 286Q1400 212 1369 155T1290 60T1182 2T1053 -18Q994 -18 944 -2T858 47T802 125T781 232Q781 245 782 258T785 286ZM980 286Q977 265 977 247Q977 191 1003 162T1075 133Q1127
133 1165 173T1215 286Q1218 307 1218 324Q1218 381 1192 409T1119 438Q1068 438 1030 399T980 286ZM1212 1360H1396L320 0H136L1212 1360Z" />
<glyph unicode="&amp;" glyph-name="ampersand" horiz-adv-x="1317" d="M1239 74L1006 -58L884 99Q791 42 692 11T496 -20Q395 -20 314 2T174 65T84 165T52 299Q52 309 52 318T54 338Q61 404 88 458T158 561T258 654T385 743L337 806Q297 859 278 915T259 1023Q259
1031 259 1037T261 1052Q269 1124 302 1183T393 1286T529 1354T708 1378Q785 1378 849 1360T959 1307T1030 1224T1056 1114Q1056 1106 1056 1098T1054 1082Q1048 1028 1027 985T973 905T894 832T794 759L733 718L956 434Q991 470 1026 510T1096 592L1247 442Q1177
343 1092 261L1239 74ZM351 368Q342 287 393 246T535 204Q593 204 647 220T754 267L512 578Q479 555 451 532T402 483T368 429T351 368ZM618 887Q660 914 691 935T745 977T780 1022T796 1078Q801 1124 768 1153T682 1182Q656 1182 631 1174T586 1149T551 1109T533
1054Q528 1007 545 971T586 906L606 879L618 887Z" />
<glyph unicode="&apos;" glyph-name="quotesingle" horiz-adv-x="359" d="M156 1360H414L295 906L107 916L156 1360Z" />
<glyph unicode="(" glyph-name="parenleft" horiz-adv-x="734" d="M411 560Q399 449 399 350Q399 236 413 140T450 -36T502 -183T564 -302L383 -362Q324 -281 275 -192T191 -4T136 200T116 420Q116 455 118 489T124 560Q140 706 183 843T289 1104T431 1331T598
1514L769 1454Q713 1388 657 1300T552 1101T466 855T411 560Z" />
<glyph unicode=")" glyph-name="parenright" horiz-adv-x="734" d="M333 592Q345 703 345 801Q345 915 331 1011T294 1188T240 1335T178 1454L360 1514Q421 1434 470 1345T555 1160T609 958T628 740Q628 704 627 667T620 592Q604 446 561 309T455 48T313 -179T145
-362L-24 -302Q30 -236 86 -149T191 50T277 296T333 592Z" />
<glyph unicode="*" glyph-name="asterisk" horiz-adv-x="1010" d="M723 1360L660 1062L945 1208L1008 1031L687 905L873 663L702 545L555 807L331 530L185 647L435 898L141 1011L252 1190L500 1054L524 1360H723Z" />
<glyph unicode="+" glyph-name="plus" horiz-adv-x="1079" d="M406 550H88L119 768H438L484 1084H735L690 768H1006L975 550H658L612 232H360L406 550Z" />
<glyph unicode="," glyph-name="comma" horiz-adv-x="563" d="M129 212H400L164 -304L-18 -272L129 212Z" />
<glyph unicode="-" glyph-name="hyphen" horiz-adv-x="733" d="M91 570L123 796H664L631 570H91Z" />
<glyph unicode="." glyph-name="period" horiz-adv-x="550" d="M86 244H358L323 0H50L86 244Z" />
<glyph unicode="/" glyph-name="slash" horiz-adv-x="855" d="M698 1360H911L155 -140H-58L698 1360Z" />
<glyph unicode="0" glyph-name="zero" horiz-adv-x="1151" d="M102 677Q126 843 176 973T301 1194T471 1332T684 1380Q780 1380 854 1345T980 1242T1057 1079T1084 863Q1084 819 1081 773T1070 677Q1046 510 995 381T869 162T697 27T481 -20Q386 -20 313 14T190
114T114 274T88 488Q88 533 91 579T102 677ZM388 677Q378 612 374 557T369 454Q369 198 513 198Q610 198 678 318T781 677Q791 744 796 802T801 909Q801 1174 654 1174Q559 1174 491 1048T388 677Z" />
<glyph unicode="1" glyph-name="one" horiz-adv-x="1151" d="M122 0L151 196H415L550 1129L250 1051L278 1248L649 1360H869L701 196H962L933 0H122Z" />
<glyph unicode="2" glyph-name="two" horiz-adv-x="1151" d="M990 218L958 0H36L53 127Q68 228 105 310T204 462T351 593T546 714Q610 749 655 780T730 844T776 910T798 985Q803 1021 792 1051T757 1102T697 1134T615 1146Q564 1146 517 1137T424 1114T335 1081T251
1044L210 1237Q246 1260 298 1285T411 1331T542 1366T682 1380Q772 1380 848 1358T979 1293T1066 1190T1097 1053Q1097 1039 1096 1025T1093 996Q1081 912 1045 848T953 730T827 632T676 538Q616 502 564 469T470 398T398 317T354 218H990Z" />
<glyph unicode="3" glyph-name="three" horiz-adv-x="1151" d="M1048 1004Q1032 892 961 815T776 697Q884 662 942 589T1001 416Q1001 404 1000 392T997 366Q984 277 937 206T815 84T641 7T425 -20Q371 -20 313 -13T201 6T101 36T23 76L109 268Q172 238 249 218T421
198Q481 198 533 210T626 247T691 306T724 389Q727 407 727 424Q727 469 709 500T659 550T583 577T486 586H307L339 804H518Q564 804 606 815T682 850T739 908T769 992Q775 1035 763 1067T722 1120T651 1151T554 1161Q473 1161 401 1145T265 1103L216 1281Q250
1301 298 1319T399 1350T508 1372T615 1380Q714 1380 794 1357T932 1291T1020 1188T1052 1055Q1052 1042 1051 1030T1048 1004Z" />
<glyph unicode="4" glyph-name="four" horiz-adv-x="1151" d="M876 244L840 0H554L590 244H5L31 426L708 1360H1037L908 464H1072L1040 244H876ZM621 464L702 1017L302 464H621Z" />
<glyph unicode="5" glyph-name="five" horiz-adv-x="1151" d="M1023 438Q1008 336 958 252T828 107T644 13T415 -20Q363 -20 309 -15T205 1T113 25T42 56L114 256Q174 230 243 214T405 198Q473 198 529 212T626 255T694 330T730 438Q732 452 733 464T734 488Q734
533 721 565T683 617T625 647T551 657Q500 657 447 649T356 625L128 665L322 1360H1068L1036 1140H516L426 851Q474 862 530 868T652 875Q741 875 811 852T930 784T1004 674T1030 526Q1030 505 1028 483T1023 438Z" />
<glyph unicode="6" glyph-name="six" horiz-adv-x="1151" d="M731 872Q886 872 969 789T1053 547Q1053 524 1051 499T1045 447Q1030 345 985 259T870 111T705 15T497 -20Q399 -20 325 13T199 111T122 268T96 480Q96 524 99 570T110 666Q134 833 194 965T341 1190T541
1331T781 1380Q833 1380 872 1377T943 1367T1001 1351T1051 1332L982 1130Q947 1144 900 1153T797 1162Q735 1162 677 1139T570 1066T483 940T420 758Q489 820 567 846T731 872ZM612 670Q558 670 501 649T392 571Q386 509 386 460Q386 324 427 261T549 198Q592
198 628 217T691 267T735 340T759 426Q765 463 765 497Q765 535 757 567T731 622T683 657T612 670Z" />
<glyph unicode="7" glyph-name="seven" horiz-adv-x="1151" d="M1164 1360L1143 1214L474 0H191L828 1152H168L198 1360H1164Z" />
<glyph unicode="8" glyph-name="eight" horiz-adv-x="1151" d="M46 385Q63 496 133 575T315 701Q249 739 215 799T180 938Q180 952 181 965T184 993Q197 1087 239 1159T346 1281T496 1355T682 1380Q772 1380 845 1359T970 1296T1051 1194T1080 1057Q1080 1041
1079 1026T1075 993Q1061 891 1004 819T855 701Q943 660 991 593T1039 435Q1039 423 1038 411T1035 385Q1021 285 974 209T854 82T686 6T479 -20Q382 -20 302 2T163 68T73 176T41 322Q41 337 42 352T46 385ZM336 391Q333 371 333 355Q333 277 382 238T511 198Q555
198 595 211T666 248T719 309T747 391Q750 410 750 429Q750 509 700 552T568 595Q525 595 486 581T416 540T364 476T336 391ZM470 987Q467 963 467 943Q467 873 502 837T598 800Q633 800 664 812T721 849T763 907T787 987Q790 1006 790 1024Q790 1092 753 1127T651
1162Q617 1162 587 1151T533 1117T493 1062T470 987Z" />
<glyph unicode="9" glyph-name="nine" horiz-adv-x="1151" d="M450 474Q370 474 308 500T204 573T141 686T119 833Q119 856 120 879T126 927Q140 1026 185 1109T302 1252T468 1346T676 1380Q878 1380 976 1253T1074 891Q1074 790 1056 670Q1033 510 977 382T838
165T649 28T419 -20Q366 -20 326 -17T253 -7T195 9T143 28L211 232Q248 217 297 208T403 198Q461 198 514 221T612 291T691 412T748 587Q679 527 603 501T450 474ZM561 684Q586 684 613 688T668 704T723 735T776 784Q782 853 782 906Q782 980 771 1029T739 1108T689
1150T624 1162Q577 1162 541 1143T477 1092T433 1017T409 925Q407 908 406 891T404 858Q404 820 412 788T439 733T488 697T561 684Z" />
<glyph unicode=":" glyph-name="colon" horiz-adv-x="589" d="M192 914H464L429 670H156L192 914ZM95 244H367L332 0H59L95 244Z" />
<glyph unicode=";" glyph-name="semicolon" horiz-adv-x="551" d="M365 212H636L400 -304L218 -272L365 212ZM193 917H465L430 673H157L193 917Z" />
<glyph unicode="&lt;" glyph-name="less" horiz-adv-x="1042" d="M894 294L857 38L58 386L94 630L994 978L956 722L364 508L894 294Z" />
<glyph unicode="=" glyph-name="equal" horiz-adv-x="1104" d="M114 662L143 868H1037L1007 662H114ZM56 266L86 472H980L950 266H56Z" />
<glyph unicode="&gt;" glyph-name="greater" horiz-adv-x="1050" d="M118 722L155 978L956 630L920 386L19 38L56 294L648 508L118 722Z" />
<glyph unicode="?" glyph-name="question" horiz-adv-x="1002" d="M261 374Q273 453 289 512T330 618T391 702T478 774Q525 806 560 833T620 888T659 943T679 1006Q689 1075 643 1116T511 1158Q420 1158 340 1133T184 1072L157 1264Q191 1283 238 1304T342 1341T465
1369T605 1380Q686 1380 753 1360T868 1302T942 1208T969 1084Q969 1070 968 1056T965 1028Q954 952 923 894T849 788T754 702T652 624Q625 601 604 579T566 528T539 462T520 374H261ZM239 212H501L471 0H209L239 212Z" />
<glyph unicode="@" glyph-name="at" horiz-adv-x="1776" d="M1661 482Q1650 423 1629 363T1577 247T1503 143T1407 58T1287 1T1142 -20Q1067 -20 1018 23T956 144Q842 -16 658 -16Q604 -16 562 2T490 56T444 141T428 254Q428 287 432 323T447 400Q477 521 528
619T646 787T791 894T953 932Q1017 932 1066 924T1154 902T1225 870T1289 830L1285 826H1290L1160 282Q1155 257 1152 238T1149 202Q1149 155 1167 140T1207 124Q1258 124 1303 152T1385 228T1448 342T1488 482Q1499 544 1505 601T1511 711Q1511 829 1482 922T1391
1081T1238 1181T1018 1216Q876 1216 752 1163T530 1012T362 774T260 460Q249 403 244 350T238 246Q238 124 270 27T366 -138T521 -242T735 -278Q779 -278 827 -273T921 -258T1011 -236T1089 -208L1101 -350Q1062 -372 1014 -388T913 -414T808 -430T706 -436Q550
-436 428 -391T221 -259T92 -49T47 231Q47 341 69 460Q107 667 194 834T407 1119T694 1300T1043 1364Q1196 1364 1315 1319T1516 1190T1640 986T1683 713Q1683 659 1678 602T1661 482ZM668 400Q652 333 652 281Q652 154 749 154Q774 154 801 159T855 179T908 218T961
285L1074 749Q1051 757 1025 761T968 766Q857 766 785 673T668 400Z" />
<glyph unicode="A" glyph-name="A" horiz-adv-x="1306" d="M841 284H370L240 0H-42L605 1360H917L1171 0H889L841 284ZM470 504H805L715 1040L470 504Z" />
<glyph unicode="B" glyph-name="B" horiz-adv-x="1255" d="M252 1360H700Q800 1360 879 1338T1013 1275T1097 1177T1127 1048Q1127 1035 1126 1023T1123 996Q1114 936 1093 889T1043 806T984 744T926 699Q1023 669 1076 605T1129 441Q1129 427 1128 413T1125 384Q1112
295 1068 224T951 103T783 27T571 0H55L252 1360ZM427 589L375 230H584Q636 230 681 240T762 272T819 326T848 404Q851 425 851 442Q851 516 804 552T663 589H427ZM506 1130L457 795H755Q778 823 801 867T832 968Q834 976 834 983T834 999Q834 1065 788 1097T652
1130H506Z" />
<glyph unicode="C" glyph-name="C" horiz-adv-x="1086" d="M97 682Q121 845 184 974T345 1194T568 1332T844 1380Q939 1380 1005 1364T1118 1327L1040 1125Q998 1142 943 1152T824 1162Q743 1162 673 1134T546 1048T450 899T392 682Q387 644 384 609T381 541Q381
450 402 385T463 279T559 218T687 198Q762 198 830 214T950 251L965 48Q905 19 822 0T622 -20Q499 -20 400 19T232 132T125 310T87 544Q87 577 89 611T97 682Z" />
<glyph unicode="D" glyph-name="D" horiz-adv-x="1324" d="M252 1360H691Q819 1360 922 1321T1098 1210T1210 1036T1250 807Q1250 746 1241 682Q1218 524 1154 398T992 183T769 47T494 0H55L252 1360ZM508 1142L374 218H504Q586 218 659 245T790 329T888 473T947
682Q952 717 954 748T957 809Q957 898 935 961T871 1065T770 1123T638 1142H508Z" />
<glyph unicode="E" glyph-name="E" horiz-adv-x="1048" d="M55 0L252 1360H1093L1061 1140H507L457 794H949L917 574H425L374 220H928L896 0H55Z" />
<glyph unicode="F" glyph-name="F" horiz-adv-x="970" d="M425 574L342 0H55L252 1360H1052L1020 1140H507L457 794H906L875 574H425Z" />
<glyph unicode="G" glyph-name="G" horiz-adv-x="1314" d="M716 744H1220L1124 80Q1015 32 903 6T661 -20Q528 -20 424 25T248 150T139 335T101 564Q101 593 102 622T109 680Q131 834 198 962T370 1184T611 1328T911 1380Q1014 1380 1096 1361T1234 1314L1164
1113Q1112 1132 1043 1147T888 1162Q790 1162 707 1130T561 1036T455 884T395 680Q391 652 389 626T387 573Q387 489 408 420T470 302T574 225T717 198Q759 198 800 203T881 220L925 526H684L716 744Z" />
<glyph unicode="H" glyph-name="H" horiz-adv-x="1389" d="M252 1360H538L455 788H985L1068 1360H1355L1158 0H871L953 568H423L341 0H55L252 1360Z" />
<glyph unicode="I" glyph-name="I" horiz-adv-x="818" d="M14 0L38 170H202L350 1190H186L211 1360H826L802 1190H636L489 170H654L629 0H14Z" />
<glyph unicode="J" glyph-name="J" horiz-adv-x="905" d="M38 234Q56 228 80 222T131 211T186 203T240 200Q285 200 319 210T379 243T419 303T443 393L583 1360H869L727 381Q710 260 670 182T571 59T434 -3T266 -20Q223 -20 181 -16T101 -5T29 11T-28 32L38 234Z" />
<glyph unicode="K" glyph-name="K" horiz-adv-x="1247" d="M571 566H422L340 0H53L250 1360H537L454 789H604L968 1360H1266L831 686L1139 0H823L571 566Z" />
<glyph unicode="L" glyph-name="L" horiz-adv-x="970" d="M252 1360H538L373 220H885L853 0H55L252 1360Z" />
<glyph unicode="M" glyph-name="M" horiz-adv-x="1622" d="M829 719L1268 1360H1589L1392 0H1105L1179 509L1272 980L865 378H693L459 989L416 519L341 0H55L252 1360H577L829 719Z" />
<glyph unicode="N" glyph-name="N" horiz-adv-x="1418" d="M252 1360H538V1359L539 1360L964 443L1097 1360H1384L1187 0H900L474 919L341 0H55L252 1360Z" />
<glyph unicode="O" glyph-name="O" horiz-adv-x="1369" d="M87 680Q111 846 173 976T327 1196T537 1333T795 1380Q914 1380 1009 1342T1172 1232T1275 1057T1311 825Q1311 790 1308 754T1300 680Q1276 513 1214 383T1060 164T850 27T592 -20Q473 -20 378 18T215
127T112 301T76 534Q76 569 79 605T87 680ZM375 680Q369 641 367 605T364 535Q364 367 431 283T623 198Q696 198 759 230T873 323T959 474T1012 680Q1018 720 1020 756T1023 827Q1023 995 956 1078T763 1162Q691 1162 628 1130T515 1037T428 886T375 680Z" />
<glyph unicode="P" glyph-name="P" horiz-adv-x="1199" d="M252 1360H735Q845 1360 930 1334T1074 1261T1163 1146T1193 996Q1193 979 1192 961T1188 925Q1173 824 1128 743T1009 605T834 518T608 487H412L341 0H55L252 1360ZM507 1142L443 705H619Q738 705 808
759T896 925Q898 939 899 951T900 975Q900 1063 846 1102T682 1142H507Z" />
<glyph unicode="Q" glyph-name="Q" horiz-adv-x="1374" d="M89 680Q113 846 174 976T328 1196T539 1333T796 1380Q915 1380 1011 1342T1174 1232T1277 1057T1313 825Q1313 790 1310 754T1302 680Q1274 491 1200 353T1013 123L1220 -193H903L774 3Q687 -20 593
-20Q474 -20 379 18T217 127T114 301T78 534Q78 569 81 605T89 680ZM377 680Q371 641 369 605T366 535Q366 367 433 283T625 198Q698 198 761 230T875 323T961 474T1014 680Q1020 720 1022 756T1025 827Q1025 995 958 1078T765 1162Q693 1162 630 1130T517 1037T430
886T377 680Z" />
<glyph unicode="R" glyph-name="R" horiz-adv-x="1254" d="M252 1360H723Q831 1360 915 1336T1056 1266T1144 1155T1174 1009Q1174 992 1173 975T1169 939Q1160 879 1137 827T1079 730T1004 648T917 580L1106 0H805L639 514H417L342 0H55L252 1360ZM508 1142L448
732H770Q787 748 803 767T834 812T859 868T876 939Q878 953 879 965T880 989Q880 1072 831 1107T683 1142H508Z" />
<glyph unicode="S" glyph-name="S" horiz-adv-x="1055" d="M968 377Q958 285 917 212T809 87T653 8T457 -20Q402 -20 343 -13T227 6T117 37T23 78L116 294Q207 262 291 241T469 220Q556 220 611 259T674 371Q678 408 665 437T624 489T555 532T463 570Q385 598
322 633T213 712T144 812T120 935Q120 957 123 980Q133 1073 174 1147T282 1272T438 1352T633 1380Q691 1380 749 1371T859 1347T955 1314T1029 1278L951 1061Q906 1078 865 1092T785 1117T706 1134T623 1140Q530 1140 478 1098T418 990Q411 923 453 878T605 795Q701
762 770 726T884 645T950 548T971 430Q971 404 968 377Z" />
<glyph unicode="T" glyph-name="T" horiz-adv-x="1102" d="M771 1140L606 0H319L484 1140H114L146 1360H1173L1141 1140H771Z" />
<glyph unicode="U" glyph-name="U" horiz-adv-x="1374" d="M1054 1360H1340L1206 436Q1190 324 1138 239T1006 96T821 9T594 -20Q487 -20 399 6T247 81T149 203T114 367Q114 384 115 402T119 440L252 1360H539L406 440Q402 417 402 392Q402 343 418 307T463 246T534
210T626 198Q682 198 731 213T820 259T885 335T920 440L1054 1360Z" />
<glyph unicode="V" glyph-name="V" horiz-adv-x="1259" d="M547 664L586 305L730 665L1034 1360H1330L698 0H383L146 1360H445L547 664Z" />
<glyph unicode="W" glyph-name="W" horiz-adv-x="1776" d="M1543 1360H1839L1362 0H1051L936 924L548 0H239L154 1360H454L469 375L876 1360H1120L1239 373L1543 1360Z" />
<glyph unicode="X" glyph-name="X" horiz-adv-x="1184" d="M635 909L951 1360H1258L772 689L1061 0H752L571 460L258 0H-54L434 689L143 1360H452L635 909Z" />
<glyph unicode="Y" glyph-name="Y" horiz-adv-x="1196" d="M619 760L976 1360H1266L718 458L651 0H365L432 464L146 1360H439L619 760Z" />
<glyph unicode="Z" glyph-name="Z" horiz-adv-x="1150" d="M217 1360H1134L1110 1190L379 219H1014L941 0H14L39 174L759 1141H185L217 1360Z" />
<glyph unicode="[" glyph-name="bracketleft" horiz-adv-x="822" d="M351 1524H795L772 1318H615L460 -94H617L594 -300H151L351 1524Z" />
<glyph unicode="\" glyph-name="backslash" horiz-adv-x="912" d="M144 1360H430L750 -140H463L144 1360Z" />
<glyph unicode="]" glyph-name="bracketright" horiz-adv-x="798" d="M665 1524L465 -300H47L70 -94H225L381 1318H225L248 1524H665Z" />
<glyph unicode="^" glyph-name="asciicircum" horiz-adv-x="953" d="M328 708H100L478 1360H693L882 708H652L546 1098L328 708Z" />
<glyph unicode="_" glyph-name="underscore" horiz-adv-x="934" d="M-134 -294L-104 -88H833L803 -294H-134Z" />
<glyph unicode="`" glyph-name="grave" horiz-adv-x="679" d="M641 1164L438 1112L143 1360L425 1408L641 1164Z" />
<glyph unicode="a" glyph-name="a" horiz-adv-x="1127" d="M661 114Q604 53 526 17T335 -20Q193 -20 120 61T47 301Q47 329 49 359T57 422Q76 555 124 665T242 854T399 976T586 1020Q622 1020 650 1015T701 1000T742 977T779 947L813 1000H1054L909 0H679L661
114ZM345 426Q343 410 342 396T341 367Q341 322 352 291T382 239T427 209T482 200Q533 200 580 223T663 286L733 771Q707 783 679 792T614 801Q565 801 522 775T443 700T383 582T345 426Z" />
<glyph unicode="b" glyph-name="b" horiz-adv-x="1188" d="M248 1402H537L468 927Q496 949 526 966T591 996T666 1014T755 1020Q831 1020 893 992T998 912T1065 786T1089 619Q1089 563 1080 502Q1062 381 1020 284T916 120T774 16T604 -20Q551 -20 510 -13T436
10T376 46T325 94L288 0H44L248 1402ZM787 502Q792 531 793 557T795 606Q795 705 755 753T624 802Q575 802 529 785T441 740L371 261Q404 233 445 216T537 198Q645 198 705 276T787 502Z" />
<glyph unicode="c" glyph-name="c" horiz-adv-x="918" d="M69 502Q87 623 136 719T259 882T432 984T645 1020Q735 1020 801 1005T911 966L830 770Q797 783 758 792T660 802Q604 802 555 785T468 731T402 638T364 502Q358 458 358 421Q358 303 415 251T572 198Q640
198 687 208T777 234L789 45Q738 17 669 -1T502 -20Q400 -20 319 10T180 95T93 230T62 407Q62 430 63 453T69 502Z" />
<glyph unicode="d" glyph-name="d" horiz-adv-x="1178" d="M698 84Q667 59 636 40T569 8T491 -13T396 -20Q319 -20 258 8T153 90T87 218T63 386Q63 442 72 502Q90 623 132 719T237 882T378 984T547 1020Q638 1020 698 997T804 929L872 1400H1158L955 0H705L698
84ZM367 502Q358 442 358 394Q358 296 397 247T526 198Q575 198 621 214T707 258L777 742Q745 768 705 785T614 802Q506 802 447 726T367 502Z" />
<glyph unicode="e" glyph-name="e" horiz-adv-x="1061" d="M344 435Q340 320 395 259T565 198Q643 198 712 210T829 237L860 59Q794 21 707 1T521 -20Q412 -20 326 7T179 88T86 219T54 395Q54 418 55 442T61 492Q80 621 129 719T252 885T421 986T629 1020Q705
1020 771 996T886 928T962 821T990 680Q990 665 989 650T985 617L959 435H344ZM587 814Q552 814 521 805T463 772T414 711T375 617H721Q723 630 724 642T725 665Q725 705 715 733T685 780T641 806T587 814Z" />
<glyph unicode="f" glyph-name="f" horiz-adv-x="748" d="M104 1000H236L242 1038Q258 1147 297 1220T394 1337T530 1401T698 1420Q750 1420 804 1411T895 1390L849 1186Q820 1190 780 1195T696 1200Q623 1200 583 1164T529 1038L523 1000H782L755 813H496L378
0H91L209 813H70L104 1000Z" />
<glyph unicode="g" glyph-name="g" horiz-adv-x="1129" d="M135 -210Q156 -215 186 -220T251 -230T322 -238T392 -242Q451 -242 496 -232T572 -200T623 -140T651 -49L667 63Q639 44 610 30T548 5T475 -10T389 -16Q312 -16 251 12T146 92T79 218T55 386Q55 442
64 502Q82 623 124 719T228 882T369 984T539 1020Q587 1020 626 1014T698 996T757 967T809 927L835 1000H1090L938 -49Q920 -175 873 -255T753 -382T587 -445T379 -463Q336 -463 292 -459T206 -448T131 -434T73 -418L135 -210ZM357 502Q352 473 351 447T349 398Q349
299 389 251T520 202Q567 202 611 217T695 259L766 745Q734 771 695 786T607 802Q499 802 439 726T357 502Z" />
<glyph unicode="h" glyph-name="h" horiz-adv-x="1188" d="M247 1400H536L466 913Q537 964 613 992T772 1020Q837 1020 891 1007T984 961T1044 876T1066 743Q1066 694 1057 634L965 0H679L771 634Q773 651 774 665T776 692Q776 754 748 778T662 802Q602 802 546
781T438 724L333 0H44L247 1400Z" />
<glyph unicode="i" glyph-name="i" horiz-adv-x="596" d="M212 1000H499L354 0H67L212 1000ZM267 1402H560L529 1190H236L267 1402Z" />
<glyph unicode="j" glyph-name="j" horiz-adv-x="597" d="M-231 -219Q-220 -222 -204 -225T-167 -231T-126 -236T-83 -238Q-48 -238 -21 -230T26 -202T58 -150T78 -70L234 1000H520L364 -70Q347 -189 309 -264T215 -383T93 -442T-48 -458Q-77 -458 -111 -455T-179
-446T-242 -433T-292 -416L-231 -219ZM287 1402H581L550 1190H256L287 1402Z" />
<glyph unicode="k" glyph-name="k" horiz-adv-x="1073" d="M499 406H392L333 0H44L247 1400H536L425 629H528L764 1000H1069L744 526L968 0H655L499 406Z" />
<glyph unicode="l" glyph-name="l" horiz-adv-x="596" d="M270 1400H557L354 0H67L270 1400Z" />
<glyph unicode="m" glyph-name="m" horiz-adv-x="1790" d="M189 1000H431L441 905Q516 959 596 989T764 1020Q861 1020 934 995T1040 904Q1116 959 1198 989T1374 1020Q1439 1020 1493 1007T1586 963T1646 879T1668 747Q1668 724 1667 698T1660 642L1567 0H1280L1373
642Q1375 656 1376 669T1377 694Q1377 754 1349 778T1263 802Q1210 802 1160 785T1064 739Q1063 729 1063 719T1060 698L958 0H671L769 674Q772 695 772 711Q772 763 743 782T654 802Q596 802 542 782T439 729L333 0H44L189 1000Z" />
<glyph unicode="n" glyph-name="n" horiz-adv-x="1188" d="M189 1000H431L443 896Q520 955 601 987T772 1020Q838 1020 892 1007T984 963T1044 878T1066 745Q1066 721 1065 694T1058 638L965 0H679L771 638Q773 655 774 669T776 696Q776 756 748 779T662 802Q602
802 546 780T438 723L333 0H44L189 1000Z" />
<glyph unicode="o" glyph-name="o" horiz-adv-x="1161" d="M62 500Q80 624 130 721T257 884T430 985T640 1020Q737 1020 817 991T954 908T1042 775T1073 597Q1073 574 1072 550T1066 500Q1048 375 998 278T871 115T698 15T489 -20Q392 -20 312 8T175 91T87 224T55
403Q55 426 56 450T62 500ZM350 500Q346 474 344 450T342 405Q342 348 355 309T391 245T447 209T520 198Q566 198 608 214T684 266T742 359T779 500Q783 527 785 551T787 596Q787 653 774 692T738 756T681 791T608 802Q562 802 521 786T445 733T387 640T350 500Z"
/>
<glyph unicode="p" glyph-name="p" horiz-adv-x="1181" d="M189 1000H442L448 912Q479 937 511 957T579 991T658 1012T755 1020Q832 1020 893 992T998 911T1065 784T1089 616Q1089 560 1080 500Q1062 379 1020 283T916 119T774 16T604 -20Q511 -20 451 4T344 73L275
-400H-14L189 1000ZM787 500Q792 529 793 555T795 604Q795 704 755 753T624 802Q575 802 529 785T441 740L371 260Q404 232 445 215T537 198Q645 198 705 275T787 500Z" />
<glyph unicode="q" glyph-name="q" horiz-adv-x="1178" d="M680 70Q651 49 621 32T557 4T484 -14T396 -20Q319 -20 258 8T153 88T87 215T63 383Q63 438 72 500Q90 621 132 717T237 881T378 984T547 1020Q598 1020 638 1013T712 992T771 958T822 912L858 1000H1100L897
-400H611L680 70ZM366 500Q357 440 357 393Q357 295 396 247T526 198Q575 198 621 214T707 258L777 742Q745 768 705 785T614 802Q506 802 447 725T366 500Z" />
<glyph unicode="r" glyph-name="r" horiz-adv-x="753" d="M189 1000H431L439 863Q509 949 579 984T723 1020Q741 1020 763 1019T803 1016L752 774Q728 779 703 780T646 782Q589 782 534 748T428 656L333 0H44L189 1000Z" />
<glyph unicode="s" glyph-name="s" horiz-adv-x="935" d="M831 292Q823 221 788 164T694 66T556 3T383 -20Q333 -20 283 -15T187 1T99 27T24 60L85 258Q123 245 158 233T230 212T303 198T380 193Q453 193 491 220T535 298Q538 321 527 338T493 370T439 396T370
418Q313 434 265 456T182 510T127 584T107 681Q107 689 107 698T109 716Q117 787 153 843T247 939T385 999T558 1020Q660 1020 742 999T876 954L810 752Q775 764 744 774T684 791T624 803T561 807Q486 807 448 783T405 712Q403 690 409 674T432 644T476 619T544
596Q690 554 761 489T833 325Q833 317 833 309T831 292Z" />
<glyph unicode="t" glyph-name="t" horiz-adv-x="795" d="M97 1000H236L274 1260L564 1280L523 1000H794L767 813H496L431 361Q429 347 428 335T427 312Q427 258 453 238T537 217Q577 217 616 223T682 235L675 27Q653 19 625 13T567 2T505 -6T445 -9Q375 -9 318
3T221 45T158 126T136 257Q136 280 137 306T144 361L209 813H61L97 1000Z" />
<glyph unicode="u" glyph-name="u" horiz-adv-x="1188" d="M965 0H725L715 108Q639 48 557 14T384 -20Q319 -20 265 -7T172 39T112 125T90 263Q90 315 99 378L189 1000H478L388 378Q382 340 382 311Q382 247 410 223T495 198Q554 198 611 220T719 278L824 1000H1110L965
0Z" />
<glyph unicode="v" glyph-name="v" horiz-adv-x="996" d="M66 1000H357L424 550L447 256L560 552L753 1000H1045L556 0H264L66 1000Z" />
<glyph unicode="w" glyph-name="w" horiz-adv-x="1466" d="M1206 1000H1480L1093 0H837L839 2L742 657L451 2L452 0H200L102 1000H376L388 309L687 1000H897L993 315L1206 1000Z" />
<glyph unicode="x" glyph-name="x" horiz-adv-x="1050" d="M264 0H-49L361 508L105 1000H414L540 702L750 1000H1058L660 508L923 0H609L482 307L264 0Z" />
<glyph unicode="y" glyph-name="y" horiz-adv-x="1040" d="M554 -50Q510 -156 463 -225T366 -336T264 -395T159 -412Q117 -412 78 -407T6 -394L56 -186Q72 -186 79 -186T92 -187T107 -188T138 -189Q160 -189 179 -183T215 -162T250 -119T287 -51L86 1000H378L470
296L776 1000H1068L554 -50Z" />
<glyph unicode="z" glyph-name="z" horiz-adv-x="928" d="M135 1000H881L858 844L355 219H820L748 0H-16L8 172L499 781H103L135 1000Z" />
<glyph unicode="{" glyph-name="braceleft" horiz-adv-x="772" d="M95 673Q133 673 166 682T226 715T271 780T296 885L320 1105Q332 1217 363 1298T447 1433T577 1511T761 1537L778 1389Q697 1389 654 1320T594 1105L570 885Q563 823 544 776T494 693T426 632T345
589Q380 574 410 552T461 499T495 429T508 341Q508 318 505 294L479 58Q476 29 474 4T472 -45Q472 -139 502 -182T601 -226L551 -374Q369 -374 284 -291T199 -37Q199 7 205 58L231 294Q234 324 234 348Q234 396 223 427T190 475T140 499T76 506L95 673Z" />
<glyph unicode="|" glyph-name="bar" horiz-adv-x="455" d="M229 1524H490L226 -300H-36L229 1524Z" />
<glyph unicode="}" glyph-name="braceright" horiz-adv-x="772" d="M692 490Q653 490 619 481T559 448T514 383T489 278L465 58Q453 -54 422 -135T338 -270T207 -348T25 -374L7 -226Q88 -226 131 -157T191 58L215 278Q222 340 242 387T291 470T358 531T440 573Q404
589 375 611T324 664T290 734T278 824Q278 835 278 846T280 869L306 1105Q312 1162 312 1207Q312 1302 282 1345T185 1389L235 1537Q416 1537 501 1453T586 1199Q586 1154 580 1105L554 869Q551 839 551 815Q551 766 562 736T595 688T645 664T710 657L692 490Z"
/>
<glyph unicode="~" glyph-name="asciitilde" horiz-adv-x="1356" d="M621 441Q573 483 533 502T443 525Q421 526 396 519T344 494T290 443T237 361L88 477Q118 556 161 611T253 701T351 750T441 766Q489 766 528 759T602 737T667 701T730 654Q779 613 823 594T918
571Q940 569 964 575T1013 600T1063 651T1114 733L1265 617Q1235 538 1191 483T1099 394T1001 344T912 328Q863 328 824 336T750 358T685 394T621 441Z" />
<glyph unicode="&#xa0;" glyph-name="space" horiz-adv-x="472" />
<glyph unicode="&#xa1;" glyph-name="exclamdown" horiz-adv-x="546" d="M449 -376H163L323 562H561L449 -376ZM607 784H343L374 1000H638L607 784Z" />
<glyph unicode="&#xa2;" glyph-name="cent" horiz-adv-x="1151" d="M155 502Q170 605 208 690T303 839T436 945T601 1007L626 1174H831L808 1017Q871 1012 916 999T997 966L915 770Q883 783 844 792T745 802Q689 802 641 785T553 731T488 638T449 502Q443 458
443 421Q443 362 458 320T500 251T568 211T658 198Q726 198 773 208T863 234L875 45Q833 22 781 6T658 -17L633 -194H427L454 -6Q381 11 324 47T228 135T168 254T147 402Q147 426 149 451T155 502Z" />
<glyph unicode="&#xa3;" glyph-name="sterling" horiz-adv-x="1127" d="M155 787H316L346 994Q362 1102 402 1176T507 1295T662 1360T868 1380Q897 1380 928 1378T989 1371T1046 1362T1096 1350L1062 1126Q1043 1130 1018 1134T964 1141T905 1146T847 1148Q794
1148 756 1138T692 1104T651 1043T627 952L603 787H905L875 578H573L556 461Q543 374 504 319T395 220H1015L983 0H6L38 220H46L40 222Q88 222 127 242T195 298T244 379T271 477L286 578H97L155 787Z" />
<glyph unicode="&#xa4;" glyph-name="currency" horiz-adv-x="1367" d="M433 985Q501 1021 576 1040T735 1060Q815 1060 886 1041T1016 985L1170 1114L1319 951L1164 822Q1188 774 1201 720T1214 606Q1214 585 1212 564T1207 520Q1194 429 1160 353T1071 211L1191
80L995 -82L874 51Q807 16 733 -2T578 -20Q500 -20 430 -2T303 51L144 -82L-5 80L153 210Q127 260 113 316T99 436Q99 476 105 520Q119 609 152 684T238 824L121 951L317 1114L433 985ZM610 200Q674 200 732 222T837 285T914 386T957 520Q959 537 960 553T962 584Q962
645 944 693T892 774T810 824T703 841Q639 841 581 819T477 755T399 654T356 520Q354 503 353 487T351 455Q351 394 369 347T422 267T503 217T610 200Z" />
<glyph unicode="&#xa5;" glyph-name="yen" horiz-adv-x="1151" d="M591 760L948 1360H1238L803 646H1023L1002 500H715L690 458L676 367H983L962 221H655L623 0H337L369 221H86L107 367H390L405 465L393 500H126L148 646H346L118 1360H412L591 760Z" />
<glyph unicode="&#xa6;" glyph-name="brokenbar" horiz-adv-x="455" d="M82 514H345L226 -300H-36L82 514ZM380 762H118L229 1524H491L380 762Z" />
<glyph unicode="&#xa7;" glyph-name="section" horiz-adv-x="1152" d="M916 -77Q903 -169 860 -242T749 -368T593 -447T401 -475Q345 -475 288 -467T176 -446T72 -414T-18 -374L68 -160Q160 -192 243 -213T419 -235Q501 -235 555 -195T621 -83Q626 -50 610 -26T560
19T478 56T369 90Q297 112 239 143T140 215T77 306T54 418Q54 430 55 442T58 468Q72 569 125 641T262 761Q227 798 208 842T189 938Q189 959 192 980Q205 1073 248 1147T360 1274T519 1354T717 1382Q774 1382 831 1373T939 1348T1033 1315T1104 1279L1023 1065Q978
1081 938 1095T859 1120T781 1136T698 1142Q606 1142 552 1100T488 990Q484 961 496 938T537 894T614 853T730 812Q895 761 972 681T1049 482Q1049 468 1048 454T1045 423Q1031 325 982 253T858 130Q919 60 919 -33Q919 -55 916 -77ZM562 598Q524 609 488 623T418
653Q343 598 329 503Q320 440 363 395T514 312Q565 296 609 280T692 246Q725 271 746 306T775 390Q780 427 770 456T734 510T665 556T562 598Z" />
<glyph unicode="&#xa8;" glyph-name="dieresis" horiz-adv-x="1008" d="M214 1414H472L451 1226H193L214 1414ZM718 1414H976L955 1226H697L718 1414Z" />
<glyph unicode="&#xa9;" glyph-name="copyright" horiz-adv-x="1683" d="M488 670Q501 763 536 836T625 959T750 1036T909 1062Q994 1062 1052 1045T1148 1000L1086 863Q1070 871 1052 878T1012 891T960 900T894 904Q852 904 816 891T750 849T701 776T671 670Q669
653 668 638T666 609Q666 515 712 474T834 432Q874 432 906 436T964 447T1012 463T1057 483L1081 348Q1057 333 1030 320T972 296T904 280T822 274Q741 274 678 296T572 359T505 460T482 594Q482 631 488 670ZM953 1380Q1086 1380 1198 1340T1393 1225T1521 1041T1567
798Q1567 741 1558 680Q1534 514 1462 384T1281 164T1037 27T750 -20Q618 -20 506 20T311 136T183 320T136 563Q136 618 145 680Q169 846 241 976T422 1196T666 1333T953 1380ZM768 104Q882 104 990 139T1186 245T1336 425T1419 680Q1428 743 1428 800Q1428 919
1391 1005T1287 1148T1131 1230T935 1257Q821 1257 713 1222T517 1116T368 936T285 680Q276 615 276 560Q276 441 313 355T417 213T573 131T768 104Z" />
<glyph unicode="&#xaa;" glyph-name="ordfeminine" horiz-adv-x="835" d="M561 1081L564 1101Q566 1109 566 1116T566 1131Q566 1179 538 1196T459 1214Q432 1214 401 1210T340 1200T283 1185T235 1168L218 1317Q247 1330 282 1341T355 1361T431 1375T506 1380Q565
1380 615 1370T702 1335T760 1269T781 1165Q781 1150 780 1134T776 1101L713 668H519L518 740Q500 727 477 712T425 685T365 664T299 656Q249 656 211 669T147 704T108 758T94 826Q94 834 94 842T96 858Q103 907 133 948T211 1019T320 1064T449 1081H561ZM391 805Q409
805 428 809T466 820T500 834T527 848L542 952H446Q410 951 385 942T344 920T320 894T311 870Q306 836 331 821T391 805Z" />
<glyph unicode="&#xab;" glyph-name="guillemotleft" horiz-adv-x="1113" d="M517 152L372 42L70 428L82 512L499 918L612 808L344 472L517 152ZM954 152L809 42L507 428L519 512L936 918L1049 808L781 472L954 152Z" />
<glyph unicode="&#xac;" glyph-name="logicalnot" horiz-adv-x="1177" d="M95 563L127 783H1065L996 309H754L790 563H95Z" />
<glyph unicode="&#xad;" glyph-name="uni00AD" horiz-adv-x="1112" d="M70 538L98 732H1036L1008 538H70Z" />
<glyph unicode="&#xae;" glyph-name="registered" horiz-adv-x="1683" d="M953 1380Q1086 1380 1198 1340T1393 1225T1521 1041T1567 798Q1567 741 1558 680Q1534 514 1462 384T1281 164T1037 27T750 -20Q618 -20 506 20T311 136T183 320T136 563Q136 618 145
680Q169 846 241 976T422 1196T666 1333T953 1380ZM768 104Q882 104 990 139T1186 245T1336 425T1419 680Q1428 743 1428 800Q1428 919 1391 1005T1287 1148T1131 1230T935 1257Q821 1257 713 1222T517 1116T368 936T285 680Q276 615 276 560Q276 441 313 355T417
213T573 131T768 104ZM642 1054H932Q989 1054 1034 1043T1112 1009T1162 951T1180 867Q1180 846 1177 824Q1167 757 1129 712T1036 638L1135 332H958L878 594H745L707 332H537L642 1054ZM789 901L763 720H902Q915 722 931 728T961 746T985 773T999 810Q1006 862
978 881T899 901H789Z" />
<glyph unicode="&#xaf;" glyph-name="macron" horiz-adv-x="930" d="M194 1422H932L914 1261H177L194 1422Z" />
<glyph unicode="0;" glyph-name="degree" horiz-adv-x="661" d="M441 1376Q484 1376 521 1361T587 1320T631 1257T647 1180Q647 1172 647 1165T645 1150Q638 1102 614 1061T552 990T470 943T375 926Q332 926 295 941T231 982T188 1043T172 1120Q172 1128 172
1135T174 1150Q181 1198 205 1239T265 1311T347 1358T441 1376ZM391 1032Q416 1032 439 1041T481 1067T512 1104T528 1150Q535 1201 506 1234T425 1268Q401 1268 378 1259T336 1234T305 1197T288 1150Q284 1125 290 1104T311 1066T345 1041T391 1032Z" />
<glyph unicode="1;" glyph-name="plusminus" horiz-adv-x="1068" d="M416 617H97L129 835H448L494 1151H745L699 835H1016L984 617H668L622 299H370L416 617ZM2 -2L30 190H900L873 -2H2Z" />
<glyph unicode="2;" glyph-name="twosuperior" horiz-adv-x="743" d="M662 805L642 668H107L116 738Q123 789 142 829T194 905T277 973T396 1038Q432 1055 456 1069T496 1098T520 1129T532 1165Q542 1234 435 1234Q403 1234 375 1230T321 1218T270 1200T217
1180L197 1304Q219 1316 248 1329T313 1354T388 1372T472 1380Q584 1380 648 1335T712 1208Q712 1200 712 1193T710 1178Q704 1134 685 1102T635 1042T564 991T474 942Q440 925 413 910T366 878T331 844T308 805H662Z" />
<glyph unicode="3;" glyph-name="threesuperior" horiz-adv-x="673" d="M663 1182Q655 1124 619 1085T523 1024Q586 1003 616 960T637 855Q623 760 545 706T317 652Q251 652 186 665T76 703L127 826Q170 810 211 799T312 788Q375 788 418 808T467 871Q474
917 445 936T353 956H220L240 1092H373Q421 1092 452 1109T489 1168Q495 1210 467 1226T380 1242Q328 1242 287 1234T200 1211L179 1326Q202 1337 231 1347T291 1364T353 1376T413 1380Q542 1380 603 1334T665 1212Q665 1204 665 1197T663 1182Z" />
<glyph unicode="4;" glyph-name="acute" horiz-adv-x="679" d="M442 1408L716 1360L367 1112L185 1152L442 1408Z" />
<glyph unicode="5;" glyph-name="mu" horiz-adv-x="1190" d="M382 319Q374 251 407 225T514 198Q570 198 621 218T722 274L827 1000H1113L968 0H727L719 94Q656 40 591 10T456 -20Q423 -20 392 -17T335 -7L278 -400H-12L192 1000H481L382 319Z" />
<glyph unicode="6;" glyph-name="paragraph" horiz-adv-x="1024" d="M816 0H529L605 520H581Q476 520 394 545T256 616T170 728T140 874Q140 891 141 908T145 942Q159 1040 203 1117T319 1249T487 1331T702 1360H1013L816 0Z" />
<glyph unicode="7;" glyph-name="periodcentered" horiz-adv-x="405" d="M36 196H248L220 0H8L36 196Z" />
<glyph unicode="8;" glyph-name="cedilla" horiz-adv-x="613" d="M386 38Q404 -22 404 -80Q404 -145 381 -203T309 -307T186 -383T10 -422L-31 -283Q11 -280 50 -267T119 -230T167 -175T185 -100Q185 -48 153 13L386 38Z" />
<glyph unicode="9;" glyph-name="onesuperior" horiz-adv-x="492" d="M77 668L93 782H199L262 1219L139 1183L157 1307L325 1365H457L373 782H477L460 668H77Z" />
<glyph unicode="a;" glyph-name="ordmasculine" horiz-adv-x="866" d="M142 1017Q155 1104 190 1171T277 1285T397 1356T543 1380Q612 1380 669 1360T766 1302T828 1208T850 1084Q850 1068 849 1051T845 1017Q832 929 797 862T709 748T587 678T438 654Q370
654 315 674T220 731T159 824T137 948Q137 965 138 982T142 1017ZM353 1017Q351 999 350 983T348 953Q348 915 356 889T380 847T415 823T461 815Q492 815 520 826T570 861T609 923T633 1017Q636 1035 637 1051T638 1082Q638 1158 606 1189T520 1220Q491 1220 465
1209T416 1174T377 1111T353 1017Z" />
<glyph unicode="b;" glyph-name="guillemotright" horiz-adv-x="1115" d="M117 808L262 918L563 532L551 448L135 42L22 152L288 488L117 808ZM556 808L701 918L1002 532L990 448L574 42L461 152L727 488L556 808Z" />
<glyph unicode="c;" glyph-name="onequarter" horiz-adv-x="1390" d="M113 669L129 783H235L298 1220L175 1184L193 1308L361 1366H493L409 783H513L496 669H113ZM1165 1360H1349L273 0H89L1165 1360ZM1183 125L1166 2H1008L1026 125H648L662 225L1091 700H1267L1201
247H1283L1265 125H1183ZM1044 247L1084 528L833 247H1044Z" />
<glyph unicode="d;" glyph-name="onehalf" horiz-adv-x="1502" d="M1343 136L1323 -1H788L797 69Q804 120 823 160T875 236T958 304T1077 369Q1113 386 1137 400T1177 429T1201 460T1213 496Q1223 565 1116 565Q1084 565 1056 561T1002 549T951 531T898 511L878
635Q900 647 929 660T994 685T1069 703T1153 711Q1265 711 1329 666T1393 539Q1393 531 1393 524T1391 509Q1385 465 1366 433T1316 373T1245 322T1155 273Q1121 256 1094 241T1047 209T1012 175T989 136H1343ZM113 668L129 782H235L298 1219L175 1183L193 1307L361
1365H493L409 782H513L496 668H113ZM1181 1360H1365L289 0H105L1181 1360Z" />
<glyph unicode="e;" glyph-name="threequarters" horiz-adv-x="1368" d="M663 1182Q655 1124 619 1085T523 1024Q586 1003 616 960T637 855Q623 760 545 706T317 652Q251 652 186 665T76 703L127 826Q170 810 211 799T312 788Q375 788 418 808T467 871Q474
917 445 936T353 956H220L240 1092H373Q421 1092 452 1109T489 1168Q495 1210 467 1226T380 1242Q328 1242 287 1234T200 1211L179 1326Q202 1337 231 1347T291 1364T353 1376T413 1380Q542 1380 603 1334T665 1212Q665 1204 665 1197T663 1182ZM1218 1360H1402L326
0H142L1218 1360ZM1197 125L1180 2H1022L1040 125H662L676 225L1105 700H1281L1215 247H1297L1279 125H1197ZM1058 247L1098 528L847 247H1058Z" />
<glyph unicode="f;" glyph-name="questiondown" horiz-adv-x="1001" d="M923 623Q911 544 895 485T854 379T793 295T706 223Q659 191 624 164T564 109T525 54T505 -9Q495 -78 541 -119T673 -161Q764 -161 844 -136T1000 -75L1027 -267Q993 -286 946 -307T842
-344T719 -372T579 -383Q498 -383 431 -363T316 -305T242 -211T215 -87Q215 -73 216 -59T219 -31Q230 45 261 103T335 209T430 295T532 373Q559 396 580 418T618 469T645 535T664 623H923ZM945 785H683L713 997H975L945 785Z" />
<glyph unicode="0;" glyph-name="Agrave" horiz-adv-x="1306" d="M841 284H370L240 0H-42L605 1360H917L1171 0H889L841 284ZM470 504H805L715 1040L470 504ZM931 1524L728 1472L433 1720L715 1768L931 1524Z" />
<glyph unicode="1;" glyph-name="Aacute" horiz-adv-x="1306" d="M841 284H370L240 0H-42L605 1360H917L1171 0H889L841 284ZM470 504H805L715 1040L470 504ZM928 1770L1202 1722L853 1474L671 1514L928 1770Z" />
<glyph unicode="2;" glyph-name="Acircumflex" horiz-adv-x="1306" d="M841 284H370L240 0H-42L605 1360H917L1171 0H889L841 284ZM470 504H805L715 1040L470 504ZM698 1472H451L768 1704H936L1185 1472H937L833 1582L698 1472Z" />
<glyph unicode="3;" glyph-name="Atilde" horiz-adv-x="1306" d="M841 284H370L240 0H-42L605 1360H917L1171 0H889L841 284ZM470 504H805L715 1040L470 504ZM947 1661Q956 1662 971 1667T1004 1683T1042 1712T1083 1758L1187 1652Q1136 1580 1079 1540T967
1492Q955 1490 944 1489T922 1487Q868 1487 826 1510T748 1562Q719 1584 693 1596T645 1606Q636 1605 623 1601T592 1587T554 1559T511 1513L405 1613Q454 1685 512 1725T626 1775Q645 1778 663 1778Q719 1778 763 1755T843 1704Q870 1680 898 1670T947 1661Z"
/>
<glyph unicode="4;" glyph-name="Adieresis" horiz-adv-x="1306" d="M841 284H370L240 0H-42L605 1360H917L1171 0H889L841 284ZM470 504H805L715 1040L470 504ZM453 1660H711L690 1472H432L453 1660ZM957 1660H1215L1194 1472H936L957 1660Z" />
<glyph unicode="5;" glyph-name="Aring" horiz-adv-x="1306" d="M841 284H370L240 0H-42L605 1360H917L1171 0H889L841 284ZM470 504H805L715 1040L470 504ZM813 1860Q853 1860 887 1845T946 1803T981 1741T987 1666Q981 1624 960 1589T908 1527T837 1487T757
1472Q716 1472 682 1487T623 1528T588 1590T583 1666Q589 1707 610 1742T662 1804T732 1845T813 1860ZM773 1588Q808 1588 834 1611T866 1666Q871 1700 851 1722T796 1744Q764 1744 736 1722T703 1666Q701 1650 705 1636T719 1611T743 1594T773 1588Z" />
<glyph unicode="6;" glyph-name="AE" horiz-adv-x="1949" d="M965 296H508L278 0L-28 1L1047 1360H1960L1928 1140H1374L1324 794H1816L1784 574H1292L1241 220H1795L1763 0H922L965 296ZM997 516L1069 1017L679 516H997Z" />
<glyph unicode="7;" glyph-name="Ccedilla" horiz-adv-x="1086" d="M97 682Q121 845 184 974T345 1194T568 1332T844 1380Q939 1380 1005 1364T1118 1327L1040 1125Q998 1142 943 1152T824 1162Q743 1162 673 1134T546 1048T450 899T392 682Q387 644 384 609T381
541Q381 450 402 385T463 279T559 218T687 198Q762 198 830 214T950 251L965 48Q905 19 822 0T622 -20Q499 -20 400 19T232 132T125 310T87 544Q87 577 89 611T97 682ZM688 38Q706 -22 706 -80Q706 -145 683 -203T611 -307T488 -383T312 -422L271 -283Q313 -280
352 -267T421 -230T469 -175T487 -100Q487 -48 455 13L688 38Z" />
<glyph unicode="8;" glyph-name="Egrave" horiz-adv-x="1048" d="M55 0L252 1360H1093L1061 1140H507L457 794H949L917 574H425L374 220H928L896 0H55ZM846 1522L643 1470L348 1718L630 1766L846 1522Z" />
<glyph unicode="9;" glyph-name="Eacute" horiz-adv-x="1048" d="M55 0L252 1360H1093L1061 1140H507L457 794H949L917 574H425L374 220H928L896 0H55ZM843 1768L1117 1720L768 1472L586 1512L843 1768Z" />
<glyph unicode="a;" glyph-name="Ecircumflex" horiz-adv-x="1048" d="M55 0L252 1360H1093L1061 1140H507L457 794H949L917 574H425L374 220H928L896 0H55ZM613 1470H366L683 1702H851L1100 1470H852L748 1580L613 1470Z" />
<glyph unicode="b;" glyph-name="Edieresis" horiz-adv-x="1048" d="M55 0L252 1360H1093L1061 1140H507L457 794H949L917 574H425L374 220H928L896 0H55ZM368 1658H626L605 1470H347L368 1658ZM872 1658H1130L1109 1470H851L872 1658Z" />
<glyph unicode="c;" glyph-name="Igrave" horiz-adv-x="818" d="M14 0L38 170H202L350 1190H186L211 1360H826L802 1190H636L489 170H654L629 0H14ZM692 1522L489 1470L194 1718L476 1766L692 1522Z" />
<glyph unicode="d;" glyph-name="Iacute" horiz-adv-x="818" d="M14 0L38 170H202L350 1190H186L211 1360H826L802 1190H636L489 170H654L629 0H14ZM690 1768L964 1720L615 1472L433 1512L690 1768Z" />
<glyph unicode="e;" glyph-name="Icircumflex" horiz-adv-x="818" d="M14 0L38 170H202L350 1190H186L211 1360H826L802 1190H636L489 170H654L629 0H14ZM459 1470H212L529 1702H697L946 1470H698L594 1580L459 1470Z" />
<glyph unicode="f;" glyph-name="Idieresis" horiz-adv-x="818" d="M14 0L38 170H202L350 1190H186L211 1360H826L802 1190H636L489 170H654L629 0H14ZM214 1658H472L451 1470H193L214 1658ZM718 1658H976L955 1470H697L718 1658Z" />
<glyph unicode="&#xd0;" glyph-name="Eth" horiz-adv-x="1382" d="M191 558H89L120 776H222L307 1360H746Q874 1360 977 1322T1153 1211T1265 1037T1305 809Q1305 778 1303 747T1295 682Q1272 524 1208 398T1047 183T823 47T548 0H110L191 558ZM478 558L428 218H559Q641
218 714 245T845 329T943 473T1002 682Q1007 717 1009 748T1012 808Q1012 898 990 961T926 1064T825 1123T693 1142H562L509 776H753L721 558H478Z" />
<glyph unicode="&#xd1;" glyph-name="Ntilde" horiz-adv-x="1418" d="M252 1360H538V1359L539 1360L964 443L1097 1360H1384L1187 0H900L474 919L341 0H55L252 1360ZM992 1659Q1001 1660 1016 1665T1049 1681T1087 1710T1128 1756L1232 1650Q1181 1578 1124 1538T1012
1490Q1000 1488 989 1487T967 1485Q913 1485 871 1508T793 1560Q764 1582 738 1594T690 1604Q681 1603 668 1599T637 1585T599 1557T556 1511L450 1611Q499 1683 557 1723T671 1773Q690 1776 708 1776Q764 1776 808 1753T888 1702Q915 1678 943 1668T992 1659Z"
/>
<glyph unicode="&#xd2;" glyph-name="Ograve" horiz-adv-x="1369" d="M87 680Q111 846 173 976T327 1196T537 1333T795 1380Q914 1380 1009 1342T1172 1232T1275 1057T1311 825Q1311 790 1308 754T1300 680Q1276 513 1214 383T1060 164T850 27T592 -20Q473 -20
378 18T215 127T112 301T76 534Q76 569 79 605T87 680ZM375 680Q369 641 367 605T364 535Q364 367 431 283T623 198Q696 198 759 230T873 323T959 474T1012 680Q1018 720 1020 756T1023 827Q1023 995 956 1078T763 1162Q691 1162 628 1130T515 1037T428 886T375
680ZM962 1540L759 1488L464 1736L746 1784L962 1540Z" />
<glyph unicode="&#xd3;" glyph-name="Oacute" horiz-adv-x="1369" d="M87 680Q111 846 173 976T327 1196T537 1333T795 1380Q914 1380 1009 1342T1172 1232T1275 1057T1311 825Q1311 790 1308 754T1300 680Q1276 513 1214 383T1060 164T850 27T592 -20Q473 -20
378 18T215 127T112 301T76 534Q76 569 79 605T87 680ZM375 680Q369 641 367 605T364 535Q364 367 431 283T623 198Q696 198 759 230T873 323T959 474T1012 680Q1018 720 1020 756T1023 827Q1023 995 956 1078T763 1162Q691 1162 628 1130T515 1037T428 886T375
680ZM959 1786L1233 1738L884 1490L702 1530L959 1786Z" />
<glyph unicode="&#xd4;" glyph-name="Ocircumflex" horiz-adv-x="1369" d="M87 680Q111 846 173 976T327 1196T537 1333T795 1380Q914 1380 1009 1342T1172 1232T1275 1057T1311 825Q1311 790 1308 754T1300 680Q1276 513 1214 383T1060 164T850 27T592 -20Q473
-20 378 18T215 127T112 301T76 534Q76 569 79 605T87 680ZM375 680Q369 641 367 605T364 535Q364 367 431 283T623 198Q696 198 759 230T873 323T959 474T1012 680Q1018 720 1020 756T1023 827Q1023 995 956 1078T763 1162Q691 1162 628 1130T515 1037T428 886T375
680ZM729 1488H482L799 1720H967L1216 1488H968L864 1598L729 1488Z" />
<glyph unicode="&#xd5;" glyph-name="Otilde" horiz-adv-x="1369" d="M87 680Q111 846 173 976T327 1196T537 1333T795 1380Q914 1380 1009 1342T1172 1232T1275 1057T1311 825Q1311 790 1308 754T1300 680Q1276 513 1214 383T1060 164T850 27T592 -20Q473 -20
378 18T215 127T112 301T76 534Q76 569 79 605T87 680ZM375 680Q369 641 367 605T364 535Q364 367 431 283T623 198Q696 198 759 230T873 323T959 474T1012 680Q1018 720 1020 756T1023 827Q1023 995 956 1078T763 1162Q691 1162 628 1130T515 1037T428 886T375
680ZM978 1677Q987 1678 1002 1683T1035 1699T1073 1728T1114 1774L1218 1668Q1167 1596 1110 1556T998 1508Q986 1506 975 1505T953 1503Q899 1503 857 1526T779 1578Q750 1600 724 1612T676 1622Q667 1621 654 1617T623 1603T585 1575T542 1529L436 1629Q485
1701 543 1741T657 1791Q676 1794 694 1794Q750 1794 794 1771T874 1720Q901 1696 929 1686T978 1677Z" />
<glyph unicode="&#xd6;" glyph-name="Odieresis" horiz-adv-x="1369" d="M87 680Q111 846 173 976T327 1196T537 1333T795 1380Q914 1380 1009 1342T1172 1232T1275 1057T1311 825Q1311 790 1308 754T1300 680Q1276 513 1214 383T1060 164T850 27T592 -20Q473
-20 378 18T215 127T112 301T76 534Q76 569 79 605T87 680ZM375 680Q369 641 367 605T364 535Q364 367 431 283T623 198Q696 198 759 230T873 323T959 474T1012 680Q1018 720 1020 756T1023 827Q1023 995 956 1078T763 1162Q691 1162 628 1130T515 1037T428 886T375
680ZM484 1676H742L721 1488H463L484 1676ZM988 1676H1246L1225 1488H967L988 1676Z" />
<glyph unicode="&#xd7;" glyph-name="multiply" horiz-adv-x="1038" d="M310 1038L543 778L852 1038L983 892L675 632L906 374L733 228L502 486L195 228L63 374L370 633L137 893L310 1038Z" />
<glyph unicode="&#xd8;" glyph-name="Oslash" horiz-adv-x="1421" d="M135 680Q159 846 221 976T375 1196T585 1333T843 1380Q943 1380 1027 1354T1176 1276L1251 1360H1439L1271 1171Q1359 1036 1359 830Q1359 794 1356 757T1348 680Q1324 513 1262 383T1108
164T898 27T640 -20Q540 -20 455 6T307 83L234 0H46L212 187Q124 322 124 529Q124 565 127 602T135 680ZM423 680Q418 642 415 608T412 542Q412 510 415 481T423 425L1000 1078Q934 1162 811 1162Q739 1162 676 1130T563 1037T476 886T423 680ZM1060 680Q1065 718
1068 752T1071 819Q1071 851 1069 879T1061 934L483 282Q550 198 671 198Q744 198 807 230T921 323T1007 474T1060 680Z" />
<glyph unicode="&#xd9;" glyph-name="Ugrave" horiz-adv-x="1374" d="M1054 1360H1340L1206 436Q1190 324 1138 239T1006 96T821 9T594 -20Q487 -20 399 6T247 81T149 203T114 367Q114 384 115 402T119 440L252 1360H539L406 440Q402 417 402 392Q402 343 418
307T463 246T534 210T626 198Q682 198 731 213T820 259T885 335T920 440L1054 1360ZM970 1522L767 1470L472 1718L754 1766L970 1522Z" />
<glyph unicode="&#xda;" glyph-name="Uacute" horiz-adv-x="1374" d="M1054 1360H1340L1206 436Q1190 324 1138 239T1006 96T821 9T594 -20Q487 -20 399 6T247 81T149 203T114 367Q114 384 115 402T119 440L252 1360H539L406 440Q402 417 402 392Q402 343 418
307T463 246T534 210T626 198Q682 198 731 213T820 259T885 335T920 440L1054 1360ZM967 1768L1241 1720L892 1472L710 1512L967 1768Z" />
<glyph unicode="&#xdb;" glyph-name="Ucircumflex" horiz-adv-x="1374" d="M1054 1360H1340L1206 436Q1190 324 1138 239T1006 96T821 9T594 -20Q487 -20 399 6T247 81T149 203T114 367Q114 384 115 402T119 440L252 1360H539L406 440Q402 417 402 392Q402 343
418 307T463 246T534 210T626 198Q682 198 731 213T820 259T885 335T920 440L1054 1360ZM737 1470H490L807 1702H975L1224 1470H976L872 1580L737 1470Z" />
<glyph unicode="&#xdc;" glyph-name="Udieresis" horiz-adv-x="1374" d="M1054 1360H1340L1206 436Q1190 324 1138 239T1006 96T821 9T594 -20Q487 -20 399 6T247 81T149 203T114 367Q114 384 115 402T119 440L252 1360H539L406 440Q402 417 402 392Q402 343 418
307T463 246T534 210T626 198Q682 198 731 213T820 259T885 335T920 440L1054 1360ZM492 1658H750L729 1470H471L492 1658ZM996 1658H1254L1233 1470H975L996 1658Z" />
<glyph unicode="&#xdd;" glyph-name="Yacute" horiz-adv-x="1196" d="M619 760L976 1360H1266L718 458L651 0H365L432 464L146 1360H439L619 760ZM853 1768L1127 1720L778 1472L596 1512L853 1768Z" />
<glyph unicode="&#xde;" glyph-name="Thorn" horiz-adv-x="1195" d="M249 1360H536L500 1108H694Q803 1108 889 1084T1034 1014T1125 904T1157 758Q1157 742 1156 727T1152 694Q1138 596 1092 519T972 387T797 305T573 276H379L339 0H52L249 1360ZM468 890L411
494H584Q697 494 769 542T856 694Q859 716 859 736Q859 819 803 854T641 890H468Z" />
<glyph unicode="&#xdf;" glyph-name="germandbls" horiz-adv-x="1295" d="M3 -192L173 978Q185 1067 230 1144T346 1279T511 1369T715 1402Q917 1402 1019 1337T1121 1158Q1121 1139 1118 1118Q1113 1083 1103 1056T1080 1008T1051 968T1020 934Q1002 913 988
895T962 857T944 816T932 770Q928 743 934 721T954 680T987 643T1029 606Q1053 584 1075 561T1114 510T1142 449T1153 374Q1153 363 1152 351T1149 326Q1135 231 1085 164T960 55T795 -6T610 -24Q547 -24 497 -17T418 0L476 216Q500 208 542 201T644 194Q683 194
719 203T785 232T833 281T859 352Q863 378 857 400T838 440T808 475T774 506Q747 529 723 552T680 602T650 659T639 729Q639 749 642 770Q651 832 682 883T762 986Q771 994 780 1005T798 1029T813 1055T821 1082Q828 1127 798 1155T690 1184Q647 1184 609 1168T540
1123T490 1058T465 978L295 -192H3Z" />
<glyph unicode="&#xe0;" glyph-name="agrave" horiz-adv-x="1092" d="M661 114Q604 53 526 17T335 -20Q193 -20 120 61T47 301Q47 329 49 359T57 422Q76 555 124 665T242 854T399 976T586 1020Q622 1020 650 1015T701 1000T742 977T779 947L813 1000H1054L909
0H679L661 114ZM345 426Q343 410 342 396T341 367Q341 322 352 291T382 239T427 209T482 200Q533 200 580 223T663 286L733 771Q707 783 679 792T614 801Q565 801 522 775T443 700T383 582T345 426ZM783 1202L580 1150L285 1398L567 1446L783 1202Z" />
<glyph unicode="&#xe1;" glyph-name="aacute" horiz-adv-x="1092" d="M661 114Q604 53 526 17T335 -20Q193 -20 120 61T47 301Q47 329 49 359T57 422Q76 555 124 665T242 854T399 976T586 1020Q622 1020 650 1015T701 1000T742 977T779 947L813 1000H1054L909
0H679L661 114ZM345 426Q343 410 342 396T341 367Q341 322 352 291T382 239T427 209T482 200Q533 200 580 223T663 286L733 771Q707 783 679 792T614 801Q565 801 522 775T443 700T383 582T345 426ZM780 1448L1054 1400L705 1152L523 1192L780 1448Z" />
<glyph unicode="&#xe2;" glyph-name="acircumflex" horiz-adv-x="1092" d="M661 114Q604 53 526 17T335 -20Q193 -20 120 61T47 301Q47 329 49 359T57 422Q76 555 124 665T242 854T399 976T586 1020Q622 1020 650 1015T701 1000T742 977T779 947L813 1000H1054L909
0H679L661 114ZM345 426Q343 410 342 396T341 367Q341 322 352 291T382 239T427 209T482 200Q533 200 580 223T663 286L733 771Q707 783 679 792T614 801Q565 801 522 775T443 700T383 582T345 426ZM550 1150H303L620 1382H788L1037 1150H789L685 1260L550 1150Z"
/>
<glyph unicode="&#xe3;" glyph-name="atilde" horiz-adv-x="1092" d="M661 114Q604 53 526 17T335 -20Q193 -20 120 61T47 301Q47 329 49 359T57 422Q76 555 124 665T242 854T399 976T586 1020Q622 1020 650 1015T701 1000T742 977T779 947L813 1000H1054L909
0H679L661 114ZM345 426Q343 410 342 396T341 367Q341 322 352 291T382 239T427 209T482 200Q533 200 580 223T663 286L733 771Q707 783 679 792T614 801Q565 801 522 775T443 700T383 582T345 426ZM800 1339Q809 1340 824 1345T857 1361T895 1390T936 1436L1040
1330Q989 1258 932 1218T820 1170Q808 1168 797 1167T775 1165Q721 1165 679 1188T601 1240Q572 1262 546 1274T498 1284Q489 1283 476 1279T445 1265T407 1237T364 1191L258 1291Q307 1363 365 1403T479 1453Q498 1456 516 1456Q572 1456 616 1433T696 1382Q723
1358 751 1348T800 1339Z" />
<glyph unicode="&#xe4;" glyph-name="adieresis" horiz-adv-x="1092" d="M661 114Q604 53 526 17T335 -20Q193 -20 120 61T47 301Q47 329 49 359T57 422Q76 555 124 665T242 854T399 976T586 1020Q622 1020 650 1015T701 1000T742 977T779 947L813 1000H1054L909
0H679L661 114ZM345 426Q343 410 342 396T341 367Q341 322 352 291T382 239T427 209T482 200Q533 200 580 223T663 286L733 771Q707 783 679 792T614 801Q565 801 522 775T443 700T383 582T345 426ZM305 1595H563L542 1407H284L305 1595ZM809 1595H1067L1046 1407H788L809
1595Z" />
<glyph unicode="&#xe5;" glyph-name="aring" horiz-adv-x="1092" d="M661 114Q604 53 526 17T335 -20Q193 -20 120 61T47 301Q47 329 49 359T57 422Q76 555 124 665T242 854T399 976T586 1020Q622 1020 650 1015T701 1000T742 977T779 947L813 1000H1054L909 0H679L661
114ZM345 426Q343 410 342 396T341 367Q341 322 352 291T382 239T427 209T482 200Q533 200 580 223T663 286L733 771Q707 783 679 792T614 801Q565 801 522 775T443 700T383 582T345 426ZM665 1539Q705 1539 739 1524T798 1482T833 1420T839 1345Q833 1303 812
1268T760 1206T689 1166T609 1151Q568 1151 534 1166T475 1207T440 1269T435 1345Q441 1386 462 1421T514 1483T584 1524T665 1539ZM625 1267Q660 1267 686 1290T718 1345Q723 1379 703 1401T648 1423Q616 1423 588 1401T555 1345Q553 1329 557 1315T571 1290T595
1273T625 1267Z" />
<glyph unicode="&#xe6;" glyph-name="ae" horiz-adv-x="1701" d="M687 581L693 622Q695 637 696 650T698 676Q698 709 689 731T661 766T613 784T545 790Q509 790 468 785T386 770T310 750T248 726L227 929Q265 947 311 963T408 992T510 1012T610 1020Q711 1020
793 999T923 924Q1060 1020 1246 1020Q1322 1020 1388 996T1503 928T1580 821T1608 680Q1608 665 1607 650T1603 617L1576 435H961Q957 320 1012 259T1182 198Q1261 198 1329 210T1446 237L1478 59Q1412 21 1324 1T1138 -20Q1023 -20 932 10T780 99Q747 81 703
61T602 25T480 -3T338 -14Q268 -14 214 4T122 55T66 133T47 232Q47 254 50 278Q60 346 99 402T198 497T336 559T500 581H687ZM443 190Q503 190 552 198T634 215L662 407H520Q475 407 443 398T389 373T356 334T340 284Q336 257 342 239T363 210T398 195T443 190ZM1204
814Q1169 814 1138 805T1080 772T1031 711T992 617H1339Q1341 630 1342 642T1343 665Q1343 706 1332 734T1303 780T1259 806T1204 814Z" />
<glyph unicode="&#xe7;" glyph-name="ccedilla" horiz-adv-x="918" d="M69 502Q87 623 136 719T259 882T432 984T645 1020Q735 1020 801 1005T911 966L830 770Q797 783 758 792T660 802Q604 802 555 785T468 731T402 638T364 502Q358 458 358 421Q358 303 415
251T572 198Q640 198 687 208T777 234L789 45Q738 17 669 -1T502 -20Q400 -20 319 10T180 95T93 230T62 407Q62 430 63 453T69 502ZM574 38Q592 -22 592 -80Q592 -145 569 -203T497 -307T374 -383T198 -422L157 -283Q199 -280 238 -267T307 -230T355 -175T373 -100Q373
-48 341 13L574 38Z" />
<glyph unicode="&#xe8;" glyph-name="egrave" horiz-adv-x="1061" d="M344 435Q340 320 395 259T565 198Q643 198 712 210T829 237L860 59Q794 21 707 1T521 -20Q412 -20 326 7T179 88T86 219T54 395Q54 418 55 442T61 492Q80 621 129 719T252 885T421 986T629
1020Q705 1020 771 996T886 928T962 821T990 680Q990 665 989 650T985 617L959 435H344ZM587 814Q552 814 521 805T463 772T414 711T375 617H721Q723 630 724 642T725 665Q725 705 715 733T685 780T641 806T587 814ZM775 1202L572 1150L277 1398L559 1446L775 1202Z"
/>
<glyph unicode="&#xe9;" glyph-name="eacute" horiz-adv-x="1061" d="M344 435Q340 320 395 259T565 198Q643 198 712 210T829 237L860 59Q794 21 707 1T521 -20Q412 -20 326 7T179 88T86 219T54 395Q54 418 55 442T61 492Q80 621 129 719T252 885T421 986T629
1020Q705 1020 771 996T886 928T962 821T990 680Q990 665 989 650T985 617L959 435H344ZM587 814Q552 814 521 805T463 772T414 711T375 617H721Q723 630 724 642T725 665Q725 705 715 733T685 780T641 806T587 814ZM772 1448L1046 1400L697 1152L515 1192L772
1448Z" />
<glyph unicode="&#xea;" glyph-name="ecircumflex" horiz-adv-x="1061" d="M344 435Q340 320 395 259T565 198Q643 198 712 210T829 237L860 59Q794 21 707 1T521 -20Q412 -20 326 7T179 88T86 219T54 395Q54 418 55 442T61 492Q80 621 129 719T252 885T421 986T629
1020Q705 1020 771 996T886 928T962 821T990 680Q990 665 989 650T985 617L959 435H344ZM587 814Q552 814 521 805T463 772T414 711T375 617H721Q723 630 724 642T725 665Q725 705 715 733T685 780T641 806T587 814ZM541 1150H294L611 1382H779L1028 1150H780L676
1260L541 1150Z" />
<glyph unicode="&#xeb;" glyph-name="edieresis" horiz-adv-x="1061" d="M344 435Q340 320 395 259T565 198Q643 198 712 210T829 237L860 59Q794 21 707 1T521 -20Q412 -20 326 7T179 88T86 219T54 395Q54 418 55 442T61 492Q80 621 129 719T252 885T421 986T629
1020Q705 1020 771 996T886 928T962 821T990 680Q990 665 989 650T985 617L959 435H344ZM587 814Q552 814 521 805T463 772T414 711T375 617H721Q723 630 724 642T725 665Q725 705 715 733T685 780T641 806T587 814ZM297 1595H555L534 1407H276L297 1595ZM801 1595H1059L1038
1407H780L801 1595Z" />
<glyph unicode="&#xec;" glyph-name="igrave" horiz-adv-x="479" d="M153 1000H440L295 0H8L153 1000ZM444 1197L241 1145L-54 1393L228 1441L444 1197Z" />
<glyph unicode="&#xed;" glyph-name="iacute" horiz-adv-x="479" d="M153 1000H440L295 0H8L153 1000ZM697 1443L971 1395L622 1147L440 1187L697 1443Z" />
<glyph unicode="&#xee;" glyph-name="icircumflex" horiz-adv-x="479" d="M153 1000H440L295 0H8L153 1000ZM211 1146H-36L281 1378H449L698 1146H450L346 1256L211 1146Z" />
<glyph unicode="&#xef;" glyph-name="idieresis" horiz-adv-x="479" d="M153 1000H440L295 0H8L153 1000ZM-34 1334H224L203 1146H-55L-34 1334ZM470 1334H728L707 1146H449L470 1334Z" />
<glyph unicode="&#xf0;" glyph-name="eth" horiz-adv-x="1195" d="M488 1022L670 1109Q627 1136 574 1149T457 1162L533 1380Q658 1380 761 1344T939 1239L1120 1326L1172 1227L1014 1152Q1065 1077 1091 982T1118 772Q1118 697 1106 615Q1085 468 1034 351T906
153T727 28T503 -16Q393 -16 311 19T174 112T94 246T74 402Q80 500 116 582T212 722T354 813T534 846Q574 846 614 839T692 818T762 780T821 724Q822 735 822 744T822 764Q822 850 805 915T755 1029L539 927L488 1022ZM513 202Q616 202 688 280T796 529Q778 563
754 585T701 621T643 640T583 646Q533 646 495 628T429 578T386 504T363 414Q360 391 360 369Q360 334 369 304T397 251T445 215T513 202Z" />
<glyph unicode="&#xf1;" glyph-name="ntilde" horiz-adv-x="1188" d="M189 1000H431L443 896Q520 955 601 987T772 1020Q838 1020 892 1007T984 963T1044 878T1066 745Q1066 721 1065 694T1058 638L965 0H679L771 638Q773 655 774 669T776 696Q776 756 748 779T662
802Q602 802 546 780T438 723L333 0H44L189 1000ZM836 1339Q845 1340 860 1345T893 1361T931 1390T972 1436L1076 1330Q1025 1258 968 1218T856 1170Q844 1168 833 1167T811 1165Q757 1165 715 1188T637 1240Q608 1262 582 1274T534 1284Q525 1283 512 1279T481
1265T443 1237T400 1191L294 1291Q343 1363 401 1403T515 1453Q534 1456 552 1456Q608 1456 652 1433T732 1382Q759 1358 787 1348T836 1339Z" />
<glyph unicode="&#xf2;" glyph-name="ograve" horiz-adv-x="1161" d="M62 500Q80 624 130 721T257 884T430 985T640 1020Q737 1020 817 991T954 908T1042 775T1073 597Q1073 574 1072 550T1066 500Q1048 375 998 278T871 115T698 15T489 -20Q392 -20 312 8T175
91T87 224T55 403Q55 426 56 450T62 500ZM350 500Q346 474 344 450T342 405Q342 348 355 309T391 245T447 209T520 198Q566 198 608 214T684 266T742 359T779 500Q783 527 785 551T787 596Q787 653 774 692T738 756T681 791T608 802Q562 802 521 786T445 733T387
640T350 500ZM811 1200L608 1148L313 1396L595 1444L811 1200Z" />
<glyph unicode="&#xf3;" glyph-name="oacute" horiz-adv-x="1161" d="M62 500Q80 624 130 721T257 884T430 985T640 1020Q737 1020 817 991T954 908T1042 775T1073 597Q1073 574 1072 550T1066 500Q1048 375 998 278T871 115T698 15T489 -20Q392 -20 312 8T175
91T87 224T55 403Q55 426 56 450T62 500ZM350 500Q346 474 344 450T342 405Q342 348 355 309T391 245T447 209T520 198Q566 198 608 214T684 266T742 359T779 500Q783 527 785 551T787 596Q787 653 774 692T738 756T681 791T608 802Q562 802 521 786T445 733T387
640T350 500ZM808 1446L1082 1398L733 1150L551 1190L808 1446Z" />
<glyph unicode="&#xf4;" glyph-name="ocircumflex" horiz-adv-x="1161" d="M62 500Q80 624 130 721T257 884T430 985T640 1020Q737 1020 817 991T954 908T1042 775T1073 597Q1073 574 1072 550T1066 500Q1048 375 998 278T871 115T698 15T489 -20Q392 -20 312
8T175 91T87 224T55 403Q55 426 56 450T62 500ZM350 500Q346 474 344 450T342 405Q342 348 355 309T391 245T447 209T520 198Q566 198 608 214T684 266T742 359T779 500Q783 527 785 551T787 596Q787 653 774 692T738 756T681 791T608 802Q562 802 521 786T445
733T387 640T350 500ZM578 1148H331L648 1380H816L1065 1148H817L713 1258L578 1148Z" />
<glyph unicode="&#xf5;" glyph-name="otilde" horiz-adv-x="1161" d="M62 500Q80 624 130 721T257 884T430 985T640 1020Q737 1020 817 991T954 908T1042 775T1073 597Q1073 574 1072 550T1066 500Q1048 375 998 278T871 115T698 15T489 -20Q392 -20 312 8T175
91T87 224T55 403Q55 426 56 450T62 500ZM350 500Q346 474 344 450T342 405Q342 348 355 309T391 245T447 209T520 198Q566 198 608 214T684 266T742 359T779 500Q783 527 785 551T787 596Q787 653 774 692T738 756T681 791T608 802Q562 802 521 786T445 733T387
640T350 500ZM827 1337Q836 1338 851 1343T884 1359T922 1388T963 1434L1067 1328Q1016 1256 959 1216T847 1168Q835 1166 824 1165T802 1163Q748 1163 706 1186T628 1238Q599 1260 573 1272T525 1282Q516 1281 503 1277T472 1263T434 1235T391 1189L285 1289Q334
1361 392 1401T506 1451Q525 1454 543 1454Q599 1454 643 1431T723 1380Q750 1356 778 1346T827 1337Z" />
<glyph unicode="&#xf6;" glyph-name="odieresis" horiz-adv-x="1161" d="M62 500Q80 624 130 721T257 884T430 985T640 1020Q737 1020 817 991T954 908T1042 775T1073 597Q1073 574 1072 550T1066 500Q1048 375 998 278T871 115T698 15T489 -20Q392 -20 312 8T175
91T87 224T55 403Q55 426 56 450T62 500ZM350 500Q346 474 344 450T342 405Q342 348 355 309T391 245T447 209T520 198Q566 198 608 214T684 266T742 359T779 500Q783 527 785 551T787 596Q787 653 774 692T738 756T681 791T608 802Q562 802 521 786T445 733T387
640T350 500ZM333 1593H591L570 1405H312L333 1593ZM837 1593H1095L1074 1405H816L837 1593Z" />
<glyph unicode="&#xf7;" glyph-name="divide" horiz-adv-x="1079" d="M84 486L114 692H990L960 486H84ZM469 1002H718L688 800H440L469 1002ZM379 378H627L598 176H349L379 378Z" />
<glyph unicode="&#xf8;" glyph-name="oslash" horiz-adv-x="1263" d="M129 500Q147 624 198 721T324 884T497 985T707 1020Q789 1020 861 1000T987 939L1050 1000H1228L1073 848Q1106 798 1123 736T1141 598Q1141 575 1140 551T1134 500Q1116 375 1065 278T939
115T766 15T556 -20Q472 -20 399 1T271 64L206 0H29L187 154Q122 252 122 399Q122 423 123 448T129 500ZM846 500Q850 525 851 546T853 588Q853 599 853 610T851 632L457 247Q481 221 514 210T588 198Q634 198 676 214T751 266T809 359T846 500ZM417 500Q413 475
412 454T410 413Q410 402 410 393T412 374L801 757Q778 780 746 791T675 802Q629 802 588 786T512 733T454 640T417 500Z" />
<glyph unicode="&#xf9;" glyph-name="ugrave" horiz-adv-x="1188" d="M965 0H725L715 108Q639 48 557 14T384 -20Q319 -20 265 -7T172 39T112 125T90 263Q90 315 99 378L189 1000H478L388 378Q382 340 382 311Q382 247 410 223T495 198Q554 198 611 220T719 278L824
1000H1110L965 0ZM817 1182L614 1130L319 1378L601 1426L817 1182Z" />
<glyph unicode="&#xfa;" glyph-name="uacute" horiz-adv-x="1188" d="M965 0H725L715 108Q639 48 557 14T384 -20Q319 -20 265 -7T172 39T112 125T90 263Q90 315 99 378L189 1000H478L388 378Q382 340 382 311Q382 247 410 223T495 198Q554 198 611 220T719 278L824
1000H1110L965 0ZM814 1428L1088 1380L739 1132L557 1172L814 1428Z" />
<glyph unicode="&#xfb;" glyph-name="ucircumflex" horiz-adv-x="1188" d="M965 0H725L715 108Q639 48 557 14T384 -20Q319 -20 265 -7T172 39T112 125T90 263Q90 315 99 378L189 1000H478L388 378Q382 340 382 311Q382 247 410 223T495 198Q554 198 611 220T719
278L824 1000H1110L965 0ZM584 1131H337L654 1363H822L1071 1131H823L719 1241L584 1131Z" />
<glyph unicode="&#xfc;" glyph-name="udieresis" horiz-adv-x="1188" d="M965 0H725L715 108Q639 48 557 14T384 -20Q319 -20 265 -7T172 39T112 125T90 263Q90 315 99 378L189 1000H478L388 378Q382 340 382 311Q382 247 410 223T495 198Q554 198 611 220T719
278L824 1000H1110L965 0ZM339 1575H597L576 1387H318L339 1575ZM843 1575H1101L1080 1387H822L843 1575Z" />
<glyph unicode="&#xfd;" glyph-name="yacute" horiz-adv-x="1040" d="M554 -50Q510 -156 463 -225T366 -336T264 -395T159 -412Q117 -412 78 -407T6 -394L56 -186Q72 -186 79 -186T92 -187T107 -188T138 -189Q160 -189 179 -183T215 -162T250 -119T287 -51L86
1000H378L470 296L776 1000H1068L554 -50ZM741 1428L1015 1380L666 1132L484 1172L741 1428Z" />
<glyph unicode="&#xfe;" glyph-name="thorn" horiz-adv-x="1148" d="M221 1400H510L443 932Q471 953 501 969T565 996T640 1014T731 1020Q807 1020 869 992T974 911T1040 784T1064 616Q1064 560 1055 500Q1037 379 995 283T891 119T750 16T580 -20Q533 -20 495
-14T425 3T367 30T317 67L249 -400H-40L221 1400ZM759 500Q768 560 768 607Q768 704 729 752T598 800Q549 800 502 783T414 737L345 261Q377 233 418 216T511 198Q619 198 678 275T759 500Z" />
<glyph unicode="&#xff;" glyph-name="ydieresis" horiz-adv-x="1040" d="M554 -50Q510 -156 463 -225T366 -336T264 -395T159 -412Q117 -412 78 -407T6 -394L56 -186Q72 -186 79 -186T92 -187T107 -188T138 -189Q160 -189 179 -183T215 -162T250 -119T287 -51L86
1000H378L470 296L776 1000H1068L554 -50ZM266 1575H524L503 1387H245L266 1575ZM770 1575H1028L1007 1387H749L770 1575Z" />
</font>
</defs>
</svg>
